<svg version="1.1" xmlns="http://www.w3.org/2000/svg" xmlns:xlink="http://www.w3.org/1999/xlink" width="720" height="672"><defs/><g><g transform="translate(-94,-182) scale(1,1)"><rect fill="#C0C0C0" stroke="none" x="471" y="351" width="155" height="72" opacity="0.2"/></g><g transform="translate(-94,-182) scale(1,1)"><rect fill="#ffffff" stroke="none" x="464" y="344" width="155" height="72"/></g><g transform="translate(-94,-182) scale(1,1)"><path fill="none" stroke="#000000" d="M 464 344 L 619 344 L 619 416 L 464 416 L 464 344 Z Z" stroke-miterlimit="10"/></g><g transform="translate(-94,-182) scale(1,1)"><path fill="none" stroke="#000000" d="M 464 369 L 619 369" stroke-miterlimit="10"/></g><g transform="translate(-94,-182) scale(1,1)"><path fill="none" stroke="#000000" d="M 464 379 L 619 379" stroke-miterlimit="10"/></g><g transform="translate(-94,-182) scale(1,1)"><g><path fill="none" stroke="none"/><text fill="#000000" stroke="none" font-family="Arial" font-size="13px" font-style="normal" font-weight="bold" text-decoration="none" x="501" y="363.5">SudokuSolver</text></g></g><g transform="translate(-94,-182) scale(1,1)"><g><path fill="none" stroke="none"/><text fill="#000000" stroke="none" font-family="Arial" font-size="13px" font-style="normal" font-weight="normal" text-decoration="none" x="469" y="396.5">+solveSudoku()</text></g></g><g transform="translate(-94,-182) scale(1,1)"><rect fill="#C0C0C0" stroke="none" x="727" y="367" width="84" height="44" opacity="0.2"/></g><g transform="translate(-94,-182) scale(1,1)"><rect fill="#ffffff" stroke="none" x="720" y="360" width="84" height="44"/></g><g transform="translate(-94,-182) scale(1,1)"><path fill="none" stroke="#000000" d="M 720 360 L 804 360 L 804 404 L 720 404 L 720 360 Z Z" stroke-miterlimit="10"/></g><g transform="translate(-94,-182) scale(1,1)"><path fill="none" stroke="#000000" d="M 720 385 L 804 385" stroke-miterlimit="10"/></g><g transform="translate(-94,-182) scale(1,1)"><path fill="none" stroke="#000000" d="M 720 395 L 804 395" stroke-miterlimit="10"/></g><g transform="translate(-94,-182) scale(1,1)"><g><path fill="none" stroke="none"/><text fill="#000000" stroke="none" font-family="Arial" font-size="13px" font-style="normal" font-weight="bold" text-decoration="none" x="726.5" y="379.5">SudokuCSP</text></g></g><g transform="translate(-94,-182) scale(1,1)"><rect fill="#C0C0C0" stroke="none" x="735" y="199" width="73" height="87" opacity="0.2"/></g><g transform="translate(-94,-182) scale(1,1)"><rect fill="#ffffff" stroke="none" x="728" y="192" width="73" height="87"/></g><g transform="translate(-94,-182) scale(1,1)"><path fill="none" stroke="#000000" d="M 728 192 L 801 192 L 801 279 L 728 279 L 728 192 Z Z" stroke-miterlimit="10"/></g><g transform="translate(-94,-182) scale(1,1)"><path fill="none" stroke="#000000" d="M 728 217 L 801 217" stroke-miterlimit="10"/></g><g transform="translate(-94,-182) scale(1,1)"><path fill="none" stroke="#000000" d="M 728 270 L 801 270" stroke-miterlimit="10"/></g><g transform="translate(-94,-182) scale(1,1)"><g><path fill="none" stroke="none"/><text fill="#000000" stroke="none" font-family="Arial" font-size="13px" font-style="normal" font-weight="bold" text-decoration="none" x="751" y="211.5">CSP</text></g></g><g transform="translate(-94,-182) scale(1,1)"><g><path fill="none" stroke="none"/><text fill="#000000" stroke="none" font-family="Arial" font-size="13px" font-style="normal" font-weight="normal" text-decoration="none" x="733" y="234.5">+variables</text></g></g><g transform="translate(-94,-182) scale(1,1)"><g><path fill="none" stroke="none"/><text fill="#000000" stroke="none" font-family="Arial" font-size="13px" font-style="normal" font-weight="normal" text-decoration="none" x="733" y="249.5">+domains</text></g></g><g transform="translate(-94,-182) scale(1,1)"><g><path fill="none" stroke="none"/><text fill="#000000" stroke="none" font-family="Arial" font-size="13px" font-style="normal" font-weight="normal" text-decoration="none" x="733" y="264.5">+adjList</text></g></g><g transform="translate(-94,-182) scale(1,1)"><path fill="none" stroke="#000000" d="M 762 359 L 763 280" stroke-miterlimit="10"/></g><g transform="translate(-94,-182) scale(1,1)"><path fill="#FFFFFF" stroke="none" d="M 771.1610988010144 300.4302830709729 L 763 280 L 754.324376603085 300.2171600051763"/></g><g transform="translate(-94,-182) scale(1,1)"><path fill="none" stroke="#000000" d="M 771.1610988010144 300.4302830709729 L 763 280 L 754.324376603085 300.2171600051763 L 771.1610988010144 300.4302830709729" stroke-miterlimit="10"/></g><g transform="translate(-94,-182) scale(1,1)"><path fill="none" stroke="#000000" d="M 620 381 L 719 382" stroke-miterlimit="10" stroke-dasharray="3"/></g><g transform="translate(-94,-182) scale(1,1)"><path fill="none" stroke="#000000" d="M 708.795325341268 386.10665497813403 L 719 382 L 708.880361765976 377.68804893204015" stroke-miterlimit="10"/></g><g transform="translate(-94,-182) scale(1,1)"><rect fill="#C0C0C0" stroke="none" x="311" y="519" width="126.1748046875" height="44" opacity="0.2"/></g><g transform="translate(-94,-182) scale(1,1)"><rect fill="#ffffff" stroke="none" x="304" y="512" width="126.1748046875" height="44"/></g><g transform="translate(-94,-182) scale(1,1)"><path fill="none" stroke="#000000" d="M 304 512 L 430.1748046875 512 L 430.1748046875 556 L 304 556 L 304 512 Z Z" stroke-miterlimit="10"/></g><g transform="translate(-94,-182) scale(1,1)"><path fill="none" stroke="#000000" d="M 304 537 L 430.1748046875 537" stroke-miterlimit="10"/></g><g transform="translate(-94,-182) scale(1,1)"><path fill="none" stroke="#000000" d="M 304 547 L 430.1748046875 547" stroke-miterlimit="10"/></g><g transform="translate(-94,-182) scale(1,1)"><g><path fill="none" stroke="none"/><text fill="#000000" stroke="none" font-family="Arial" font-size="13px" font-style="normal" font-weight="bold" text-decoration="none" x="314.08740234375" y="531.5">AC3SudokuSolver</text></g></g><g transform="translate(-94,-182) scale(1,1)"><rect fill="#C0C0C0" stroke="none" x="311" y="655" width="156.02783203125" height="44" opacity="0.2"/></g><g transform="translate(-94,-182) scale(1,1)"><rect fill="#ffffff" stroke="none" x="304" y="648" width="156.02783203125" height="44"/></g><g transform="translate(-94,-182) scale(1,1)"><path fill="none" stroke="#000000" d="M 304 648 L 460.02783203125 648 L 460.02783203125 692 L 304 692 L 304 648 Z Z" stroke-miterlimit="10"/></g><g transform="translate(-94,-182) scale(1,1)"><path fill="none" stroke="#000000" d="M 304 673 L 460.02783203125 673" stroke-miterlimit="10"/></g><g transform="translate(-94,-182) scale(1,1)"><path fill="none" stroke="#000000" d="M 304 683 L 460.02783203125 683" stroke-miterlimit="10"/></g><g transform="translate(-94,-182) scale(1,1)"><g><path fill="none" stroke="none"/><text fill="#000000" stroke="none" font-family="Arial" font-size="13px" font-style="normal" font-weight="bold" text-decoration="none" x="314.513916015625" y="667.5">AC3MRVSudokuSolver</text></g></g><g transform="translate(-94,-182) scale(1,1)"><rect fill="#C0C0C0" stroke="none" x="535" y="655" width="181.9326171875" height="44" opacity="0.2"/></g><g transform="translate(-94,-182) scale(1,1)"><rect fill="#ffffff" stroke="none" x="528" y="648" width="181.9326171875" height="44"/></g><g transform="translate(-94,-182) scale(1,1)"><path fill="none" stroke="#000000" d="M 528 648 L 709.9326171875 648 L 709.9326171875 692 L 528 692 L 528 648 Z Z" stroke-miterlimit="10"/></g><g transform="translate(-94,-182) scale(1,1)"><path fill="none" stroke="#000000" d="M 528 673 L 709.9326171875 673" stroke-miterlimit="10"/></g><g transform="translate(-94,-182) scale(1,1)"><path fill="none" stroke="#000000" d="M 528 683 L 709.9326171875 683" stroke-miterlimit="10"/></g><g transform="translate(-94,-182) scale(1,1)"><g><path fill="none" stroke="none"/><text fill="#000000" stroke="none" font-family="Arial" font-size="13px" font-style="normal" font-weight="bold" text-decoration="none" x="538.96630859375" y="667.5">AC3MRVLCVSudokuSolver</text></g></g><g transform="translate(-94,-182) scale(1,1)"><rect fill="#C0C0C0" stroke="none" x="255" y="351" width="50" height="44" opacity="0.2"/></g><g transform="translate(-94,-182) scale(1,1)"><rect fill="#ffffff" stroke="none" x="248" y="344" width="50" height="44"/></g><g transform="translate(-94,-182) scale(1,1)"><path fill="none" stroke="#000000" d="M 248 344 L 298 344 L 298 388 L 248 388 L 248 344 Z Z" stroke-miterlimit="10"/></g><g transform="translate(-94,-182) scale(1,1)"><path fill="none" stroke="#000000" d="M 248 369 L 298 369" stroke-miterlimit="10"/></g><g transform="translate(-94,-182) scale(1,1)"><path fill="none" stroke="#000000" d="M 248 379 L 298 379" stroke-miterlimit="10"/></g><g transform="translate(-94,-182) scale(1,1)"><g><path fill="none" stroke="none"/><text fill="#000000" stroke="none" font-family="Arial" font-size="13px" font-style="normal" font-weight="bold" text-decoration="none" x="260.5" y="363.5">AC3</text></g></g><g transform="translate(-94,-182) scale(1,1)"><path fill="none" stroke="#000000" d="M 354 511 L 286 389" stroke-miterlimit="10" stroke-dasharray="3"/></g><g transform="translate(-94,-182) scale(1,1)"><path fill="none" stroke="#000000" d="M 294.62471589300566 395.82746481242754 L 286 389 L 287.27084842657166 399.92634176093173" stroke-miterlimit="10"/></g><g transform="translate(-94,-182) scale(1,1)"><path fill="none" stroke="#000000" d="M 393 511 L 499 417" stroke-miterlimit="10"/></g><g transform="translate(-94,-182) scale(1,1)"><path fill="#FFFFFF" stroke="none" d="M 489.3787462034484 436.7846272490118 L 499 417 L 478.20690210591715 424.18659028796594"/></g><g transform="translate(-94,-182) scale(1,1)"><path fill="none" stroke="#000000" d="M 489.3787462034484 436.7846272490118 L 499 417 L 478.20690210591715 424.18659028796594 L 489.3787462034484 436.7846272490118" stroke-miterlimit="10"/></g><g transform="translate(-94,-182) scale(1,1)"><path fill="none" stroke="#000000" d="M 379 647 L 370 557" stroke-miterlimit="10"/></g><g transform="translate(-94,-182) scale(1,1)"><path fill="#FFFFFF" stroke="none" d="M 380.39970132724 576.3867535266791 L 370 557 L 363.6451944468992 578.0622042147131"/></g><g transform="translate(-94,-182) scale(1,1)"><path fill="none" stroke="#000000" d="M 380.39970132724 576.3867535266791 L 370 557 L 363.6451944468992 578.0622042147131 L 380.39970132724 576.3867535266791" stroke-miterlimit="10"/></g><g transform="translate(-94,-182) scale(1,1)"><path fill="none" stroke="#000000" d="M 576 647 L 409 557" stroke-miterlimit="10"/></g><g transform="translate(-94,-182) scale(1,1)"><path fill="#FFFFFF" stroke="none" d="M 430.8865510382765 559.2313412219823 L 409 557 L 422.89833214674604 574.0539251651555"/></g><g transform="translate(-94,-182) scale(1,1)"><path fill="none" stroke="#000000" d="M 430.8865510382765 559.2313412219823 L 409 557 L 422.89833214674604 574.0539251651555 L 430.8865510382765 559.2313412219823" stroke-miterlimit="10"/></g><g transform="translate(-94,-182) scale(1,1)"><rect fill="#C0C0C0" stroke="none" x="111" y="655" width="152.07958984375" height="44" opacity="0.2"/></g><g transform="translate(-94,-182) scale(1,1)"><rect fill="#ffffff" stroke="none" x="104" y="648" width="152.07958984375" height="44"/></g><g transform="translate(-94,-182) scale(1,1)"><path fill="none" stroke="#000000" d="M 104 648 L 256.07958984375 648 L 256.07958984375 692 L 104 692 L 104 648 Z Z" stroke-miterlimit="10"/></g><g transform="translate(-94,-182) scale(1,1)"><path fill="none" stroke="#000000" d="M 104 673 L 256.07958984375 673" stroke-miterlimit="10"/></g><g transform="translate(-94,-182) scale(1,1)"><path fill="none" stroke="#000000" d="M 104 683 L 256.07958984375 683" stroke-miterlimit="10"/></g><g transform="translate(-94,-182) scale(1,1)"><g><path fill="none" stroke="none"/><text fill="#000000" stroke="none" font-family="Arial" font-size="13px" font-style="normal" font-weight="bold" text-decoration="none" x="114.539794921875" y="667.5">AC3LCVSudokuSolver</text></g></g><g transform="translate(-94,-182) scale(1,1)"><path fill="none" stroke="#000000" d="M 212 647 L 335 557" stroke-miterlimit="10"/></g><g transform="translate(-94,-182) scale(1,1)"><path fill="#FFFFFF" stroke="none" d="M 323.5683510131122 575.7967391172136 L 335 557 L 313.62530178725115 562.2079051752035"/></g><g transform="translate(-94,-182) scale(1,1)"><path fill="none" stroke="#000000" d="M 323.5683510131122 575.7967391172136 L 335 557 L 313.62530178725115 562.2079051752035 L 323.5683510131122 575.7967391172136" stroke-miterlimit="10"/></g><g transform="translate(-94,-182) scale(1,1)"><rect fill="#C0C0C0" stroke="none" x="575" y="519" width="164.7841796875" height="44" opacity="0.2"/></g><g transform="translate(-94,-182) scale(1,1)"><rect fill="#ffffff" stroke="none" x="568" y="512" width="164.7841796875" height="44"/></g><g transform="translate(-94,-182) scale(1,1)"><path fill="none" stroke="#000000" d="M 568 512 L 732.7841796875 512 L 732.7841796875 556 L 568 556 L 568 512 Z Z" stroke-miterlimit="10"/></g><g transform="translate(-94,-182) scale(1,1)"><path fill="none" stroke="#000000" d="M 568 537 L 732.7841796875 537" stroke-miterlimit="10"/></g><g transform="translate(-94,-182) scale(1,1)"><path fill="none" stroke="#000000" d="M 568 547 L 732.7841796875 547" stroke-miterlimit="10"/></g><g transform="translate(-94,-182) scale(1,1)"><g><path fill="none" stroke="none"/><text fill="#000000" stroke="none" font-family="Arial" font-size="13px" font-style="normal" font-weight="bold" text-decoration="none" x="580.39208984375" y="531.5">BacktrackSudokuSolver</text></g></g><g transform="translate(-94,-182) scale(1,1)"><path fill="none" stroke="#000000" d="M 634 511 L 567 417" stroke-miterlimit="10"/></g><g transform="translate(-94,-182) scale(1,1)"><path fill="#FFFFFF" stroke="none" d="M 585.6529830394501 428.6647427631298 L 567 417 L 571.941432087947 438.4378695051586"/></g><g transform="translate(-94,-182) scale(1,1)"><path fill="none" stroke="#000000" d="M 585.6529830394501 428.6647427631298 L 567 417 L 571.941432087947 438.4378695051586 L 585.6529830394501 428.6647427631298" stroke-miterlimit="10"/></g><g transform="translate(-94,-182) scale(1,1)"><rect fill="#C0C0C0" stroke="none" x="471" y="807" width="92" height="44" opacity="0.2"/></g><g transform="translate(-94,-182) scale(1,1)"><rect fill="#ffffff" stroke="none" x="464" y="800" width="92" height="44"/></g><g transform="translate(-94,-182) scale(1,1)"><path fill="none" stroke="#000000" d="M 464 800 L 556 800 L 556 844 L 464 844 L 464 800 Z Z" stroke-miterlimit="10"/></g><g transform="translate(-94,-182) scale(1,1)"><path fill="none" stroke="#000000" d="M 464 825 L 556 825" stroke-miterlimit="10"/></g><g transform="translate(-94,-182) scale(1,1)"><path fill="none" stroke="#000000" d="M 464 835 L 556 835" stroke-miterlimit="10"/></g><g transform="translate(-94,-182) scale(1,1)"><g><path fill="none" stroke="none"/><text fill="#000000" stroke="none" font-family="Arial" font-size="13px" font-style="normal" font-weight="bold" text-decoration="none" x="471.5" y="819.5">SolveSudoku</text></g></g><g transform="translate(-94,-182) scale(1,1)"><rect fill="#C0C0C0" stroke="none" x="663" y="807" width="118" height="44" opacity="0.2"/></g><g transform="translate(-94,-182) scale(1,1)"><rect fill="#ffffff" stroke="none" x="656" y="800" width="118" height="44"/></g><g transform="translate(-94,-182) scale(1,1)"><path fill="none" stroke="#000000" d="M 656 800 L 774 800 L 774 844 L 656 844 L 656 800 Z Z" stroke-miterlimit="10"/></g><g transform="translate(-94,-182) scale(1,1)"><path fill="none" stroke="#000000" d="M 656 825 L 774 825" stroke-miterlimit="10"/></g><g transform="translate(-94,-182) scale(1,1)"><path fill="none" stroke="#000000" d="M 656 835 L 774 835" stroke-miterlimit="10"/></g><g transform="translate(-94,-182) scale(1,1)"><g><path fill="none" stroke="none"/><text fill="#000000" stroke="none" font-family="Arial" font-size="13px" font-style="normal" font-weight="bold" text-decoration="none" x="664.5" y="819.5">SudokuGenerator</text></g></g><g transform="translate(-94,-182) scale(1,1)"><path fill="none" stroke="#000000" d="M 526 799 L 602 693" stroke-miterlimit="10" stroke-dasharray="3"/></g><g transform="translate(-94,-182) scale(1,1)"><path fill="none" stroke="#000000" d="M 599.4993923001383 703.7120007996356 L 602 693 L 592.6572749328425 698.8063317438385" stroke-miterlimit="10"/></g><g transform="translate(-94,-182) scale(1,1)"><path fill="none" stroke="#000000" d="M 700 799 L 633 693" stroke-miterlimit="10" stroke-dasharray="3"/></g><g transform="translate(-94,-182) scale(1,1)"><path fill="none" stroke="#000000" d="M 641.9881485779839 699.341386689052 L 633 693 L 634.8715432798498 703.8396183397595" stroke-miterlimit="10"/></g></g></svg>